<?xml version="1.0" encoding="UTF-8"?>
<svg id="_Слой_1" data-name="Слой 1" xmlns="http://www.w3.org/2000/svg" viewBox="400 350 400 100">
  <defs>
    <style>
      .cls-1 {
        fill: #1d1d1b;
      }
    </style>
  </defs>
  <path class="cls-1" d="M451.79,445c-3.53,0-7.89-.14-13.06-.43-5.18-.29-9.95-.43-14.34-.43-4.02,0-7.89.05-11.6.14-3.72.1-7.03.14-9.95.14-.25,0-.37-.29-.37-.86s.12-.86.37-.86c4.38,0,7.73-.24,10.05-.71,2.31-.47,3.84-1.43,4.57-2.85.73-1.43,1.1-3.52,1.1-6.28v-66.04c0-2.76-.37-4.83-1.1-6.2-.73-1.38-2.22-2.33-4.47-2.85-2.25-.52-5.57-.78-9.95-.78-.25,0-.37-.29-.37-.86s.12-.86.37-.86c2.92,0,6.21.07,9.86.21,3.65.14,7.49.21,11.51.21s8.34-.12,12.97-.36c4.63-.24,8.58-.36,11.87-.36,12.91,0,24.2,1.9,33.88,5.71,9.68,3.8,17.2,8.99,22.56,15.55,5.36,6.56,8.04,13.93,8.04,22.11,0,7.13-1.64,13.57-4.93,19.33-3.29,5.75-7.79,10.65-13.52,14.69-5.72,4.04-12.33,7.16-19.82,9.34-7.49,2.19-15.37,3.28-23.65,3.28ZM449.96,442.86c9.74,0,18.32-1.59,25.75-4.78,7.43-3.18,13.3-7.87,17.63-14.05,4.32-6.18,6.48-13.69,6.48-22.54,0-8.27-2.01-15.76-6.03-22.46-4.02-6.7-9.65-12.03-16.9-15.98-7.25-3.94-15.92-5.92-26.03-5.92-7.31,0-12.54.57-15.71,1.71-3.17,1.14-4.75,3.9-4.75,8.27v64.18c0,3.99,1.25,6.92,3.74,8.77,2.49,1.85,7.76,2.78,15.8,2.78Z"/>
  <path class="cls-1" d="M607.95,444.43h-76.53c-.25,0-.37-.29-.37-.86s.12-.86.37-.86c4.5,0,7.85-.24,10.05-.71,2.19-.47,3.68-1.43,4.47-2.85.79-1.43,1.19-3.52,1.19-6.28v-66.04c0-2.76-.4-4.83-1.19-6.2-.79-1.38-2.28-2.33-4.47-2.85-2.19-.52-5.54-.78-10.05-.78-.25,0-.37-.29-.37-.86s.12-.86.37-.86h73.42c1.1,0,1.64.43,1.64,1.28l.37,17.54c0,.29-.34.45-1,.5-.67.05-1-.07-1-.36-.37-5.13-2.35-9.08-5.94-11.84-3.59-2.76-8.25-4.14-13.97-4.14h-11.14c-4.14,0-7.28.24-9.41.71-2.13.48-3.59,1.38-4.38,2.71-.79,1.33-1.19,3.28-1.19,5.85v64.75c0,2.47.39,4.38,1.19,5.71.79,1.33,2.19,2.24,4.2,2.71,2.01.48,5.02.71,9.04.71h14.61c5.84,0,10.74-1.64,14.7-4.92,3.96-3.28,6.54-7.72,7.76-13.34,0-.29.37-.38,1.1-.29.73.1,1.1.29,1.1.57-.49,2.47-.88,5.47-1.19,8.99-.31,3.52-.46,6.8-.46,9.84,0,1.43-.98,2.14-2.92,2.14ZM597.72,411.2c0-4.18-1.31-7.18-3.93-8.99-2.62-1.81-6.97-2.71-13.06-2.71h-27.4v-2.99h27.94c5.84,0,10.01-.78,12.51-2.35,2.49-1.57,3.74-4.11,3.74-7.63,0-.19.37-.29,1.1-.29s1.1.1,1.1.29c0,2.85-.03,5.06-.09,6.63-.06,1.57-.09,3.21-.09,4.92,0,2.19.06,4.33.18,6.42.12,2.09.18,4.33.18,6.7,0,.19-.37.29-1.1.29s-1.1-.09-1.1-.29Z"/>
  <path class="cls-1" d="M744.75,355.29c.37,0,.55.29.55.86s-.18.86-.55.86c-3.9,0-7.4.81-10.5,2.43-3.1,1.62-5.75,4.56-7.95,8.84l-38.9,76.02c-.12.38-.76.57-1.92.57s-1.86-.19-2.1-.57l-45.48-77.16c-2.07-3.61-4.23-6.2-6.48-7.77-2.25-1.57-5.27-2.35-9.04-2.35-.37,0-.55-.29-.55-.86s.18-.86.55-.86c1.7,0,3.35.05,4.93.14,1.58.1,3.22.17,4.93.21,1.7.05,3.47.07,5.3.07,3.65,0,6.88-.02,9.68-.07,2.8-.05,5.3-.12,7.49-.21,2.19-.09,4.2-.14,6.03-.14.37,0,.55.29.55.86s-.18.86-.55.86c-4.75,0-8.07.71-9.95,2.14-1.89,1.43-1.8,3.9.27,7.42l39.45,67.46-5.66,6.56,37.26-73.17c1.83-3.52,1.83-6.13,0-7.84-1.83-1.71-6.09-2.57-12.79-2.57-.37,0-.55-.29-.55-.86s.18-.86.55-.86c3.04,0,5.9.07,8.58.21,2.68.14,6.21.21,10.59.21,3.53,0,6.36-.07,8.49-.21,2.13-.14,4.72-.21,7.76-.21Z"/>
  <path class="cls-1" d="M781.46,432.88c0,2.76.37,4.85,1.1,6.28.73,1.43,2.22,2.38,4.47,2.85,2.25.48,5.57.71,9.95.71.37,0,.55.29.55.86s-.18.86-.55.86c-2.92,0-6.18-.05-9.77-.14-3.59-.09-7.58-.14-11.96-.14-4.14,0-8.04.05-11.69.14-3.65.1-6.94.14-9.86.14-.37,0-.55-.29-.55-.86s.18-.86.55-.86c4.38,0,7.73-.24,10.05-.71,2.31-.47,3.84-1.43,4.57-2.85.73-1.43,1.1-3.52,1.1-6.28v-66.04c0-2.76-.37-4.83-1.1-6.2-.73-1.38-2.25-2.33-4.57-2.85-2.31-.52-5.66-.78-10.05-.78-.37,0-.55-.29-.55-.86s.18-.86.55-.86c2.92,0,6.21.07,9.86.21,3.65.14,7.55.21,11.69.21,4.38,0,8.4-.07,12.05-.21s6.88-.21,9.68-.21c.37,0,.55.29.55.86s-.18.86-.55.86c-4.38,0-7.7.29-9.95.86-2.25.57-3.74,1.57-4.47,2.99-.73,1.43-1.1,3.52-1.1,6.28v65.75Z"/>
</svg>